<?xml version="1.0" encoding="UTF-8" standalone="no"?>
<svg
   xmlns:dc="http://purl.org/dc/elements/1.1/"
   xmlns:cc="http://creativecommons.org/ns#"
   xmlns:rdf="http://www.w3.org/1999/02/22-rdf-syntax-ns#"
   xmlns:svg="http://www.w3.org/2000/svg"
   xmlns="http://www.w3.org/2000/svg"
   xmlns:sodipodi="http://sodipodi.sourceforge.net/DTD/sodipodi-0.dtd"
   xmlns:inkscape="http://www.inkscape.org/namespaces/inkscape"
   class="Checkout-header-logo-icon"
   viewBox="0 0 4096 4096"
   version="1.1"
   id="svg6"
   sodipodi:docname="magalu-logo.svg"
   inkscape:version="0.92.2 (5c3e80d, 2017-08-06)"
   width="4096"
   height="4096"
   inkscape:export-filename="G:\Users\suitedoalex\sites\svg\magalu-logo-0.png"
   inkscape:export-xdpi="96"
   inkscape:export-ydpi="96">
  <metadata
     id="metadata12">
    <rdf:RDF>
      <cc:Work
         rdf:about="">
        <dc:format>image/svg+xml</dc:format>
        <dc:type
           rdf:resource="http://purl.org/dc/dcmitype/StillImage" />
        <dc:title></dc:title>
      </cc:Work>
    </rdf:RDF>
  </metadata>
  <defs
     id="defs10" />
  <sodipodi:namedview
     pagecolor="#ffffff"
     bordercolor="#666666"
     borderopacity="1"
     objecttolerance="10"
     gridtolerance="10"
     guidetolerance="10"
     inkscape:pageopacity="0"
     inkscape:pageshadow="2"
     inkscape:window-width="1600"
     inkscape:window-height="837"
     id="namedview8"
     showgrid="false"
     inkscape:zoom="0.056568542"
     inkscape:cx="-955.21137"
     inkscape:cy="1454.765"
     inkscape:window-x="-8"
     inkscape:window-y="-8"
     inkscape:window-maximized="1"
     inkscape:current-layer="svg6"
     inkscape:measure-start="0,0"
     inkscape:measure-end="0,0" />
  <g
     id="g4"
     style="fill:#0f88ff;fill-opacity:1;fill-rule:nonzero"
     transform="matrix(24.878213,0,0,24.878213,341.80891,1675.6478)"
     inkscape:export-xdpi="11.253214"
     inkscape:export-ydpi="11.253214">
    <path
       d="m 135.742,0.487 h -3.105 c -0.886,0 -1.42,0.536 -1.42,1.42 v 9.182 c 0,3.371 -1.818,5.278 -4.346,5.278 -2.662,0 -4.17,-1.729 -4.17,-5.055 V 1.907 c 0,-0.886 -0.535,-1.42 -1.42,-1.42 h -3.104 c -0.886,0 -1.42,0.536 -1.42,1.42 v 9.848 c 0,6.254 3.239,9.802 8.118,9.802 2.928,0 5.19,-0.975 6.786,-2.972 l 0.268,1.243 c 0.178,0.804 0.71,1.242 1.552,1.242 h 2.262 c 0.888,0 1.42,-0.536 1.42,-1.42 V 1.907 c -0.001,-0.886 -0.533,-1.42 -1.421,-1.42 z m -21.646,15.171 h -5.588 c -1.952,0 -2.972,-1.02 -2.972,-2.972 V 1.907 c 0,-0.886 -0.536,-1.42 -1.42,-1.42 h -3.194 c -0.887,0 -1.418,0.536 -1.418,1.42 V 13.44 c 0,4.746 2.882,7.634 7.633,7.634 h 6.965 c 0.886,0 1.42,-0.536 1.42,-1.42 v -2.577 c -0.006,-0.886 -0.539,-1.42 -1.426,-1.42 z M 23.697,1.863 C 23.607,0.938 23.12,0.488 22.232,0.488 h -2.35 c -0.754,0 -1.286,0.31 -1.685,0.976 l -5.723,9.67 -5.322,-9.67 C 6.797,0.794 6.214,0.488 5.466,0.488 H 2.938 c -0.888,0 -1.375,0.45 -1.465,1.375 L 0.011,19.606 c -0.09,0.976 0.401,1.464 1.33,1.464 H 4.18 c 0.887,0 1.42,-0.444 1.464,-1.376 l 0.621,-9.936 3.415,6.16 c 0.355,0.67 0.938,0.977 1.685,0.977 h 1.953 c 0.754,0 1.286,-0.268 1.685,-0.976 l 3.86,-6.61 0.443,10.38 c 0.044,0.937 0.536,1.375 1.42,1.375 h 3.06 c 0.937,0 1.42,-0.487 1.33,-1.464 z m 71.68,-1.376 h -2.439 c -0.843,0 -1.42,0.444 -1.552,1.288 l -0.134,1.02 C 89.878,1.331 87.882,0 84.554,0 c -5.588,0 -9.713,4.392 -9.713,10.734 0,6.21 3.858,10.823 9.359,10.823 3.459,0 5.722,-1.464 7.098,-2.972 l 0.222,1.243 c 0.134,0.804 0.67,1.242 1.508,1.242 h 2.35 c 0.889,0 1.42,-0.536 1.42,-1.42 V 1.907 c -0.001,-0.886 -0.533,-1.42 -1.42,-1.42 z m -9.529,15.88 c -3.15,0 -5.145,-2.173 -5.145,-5.544 0,-3.415 2.084,-5.633 5.145,-5.633 3.149,0 5.144,2.173 5.144,5.544 -0.006,3.416 -2.09,5.633 -5.144,5.633 z M 71.292,0.487 h -2.44 c -0.843,0 -1.419,0.444 -1.553,1.288 l -0.134,1.02 C 65.791,1.331 63.795,0 60.47,0 c -5.59,0 -9.71,4.125 -9.71,10.468 0,6.033 3.814,10.29 9.315,10.29 3.415,0 5.456,-1.419 6.83,-2.927 v 1.02 c 0,3.549 -1.996,5.812 -6.209,5.812 -1.728,0 -3.436,-0.365 -5.013,-1.071 -0.842,-0.402 -1.508,-0.223 -1.907,0.62 L 52.8,26.164 c -0.402,0.804 -0.268,1.464 0.489,1.907 2.35,1.33 5.233,1.863 8.027,1.863 6.964,0 11.4,-4.391 11.4,-10.513 V 1.907 C 72.712,1.021 72.18,0.487 71.293,0.487 Z m -9.536,15.215 c -3.062,0 -5.146,-2.04 -5.146,-5.19 0,-3.327 2.173,-5.322 5.146,-5.322 3.06,0 5.144,1.818 5.144,5.234 0,3.06 -2.172,5.278 -5.144,5.278 z M 47.206,0.487 h -2.439 c -0.844,0 -1.42,0.444 -1.554,1.288 l -0.134,1.02 C 41.705,1.331 39.71,0 36.383,0 c -5.589,0 -9.714,4.392 -9.714,10.734 0,6.21 3.859,10.823 9.36,10.823 3.458,0 5.72,-1.464 7.097,-2.972 l 0.223,1.243 c 0.134,0.804 0.67,1.242 1.508,1.242 h 2.35 c 0.888,0 1.42,-0.536 1.42,-1.42 V 1.907 C 48.625,1.021 48.094,0.487 47.206,0.487 Z m -9.537,15.88 c -3.149,0 -5.146,-2.173 -5.146,-5.544 0,-3.415 2.085,-5.633 5.146,-5.633 3.15,0 5.145,2.173 5.145,5.544 0,3.416 -2.084,5.633 -5.145,5.633 z"
       id="path2"
       style="fill:#0f88ff;fill-opacity:1"
       inkscape:connector-curvature="0" />
  </g>
</svg>
